<svg width="53" height="42" viewBox="0 0 53 42" fill="none" xmlns="http://www.w3.org/2000/svg">
<path d="M9.28339 37.1767C9.28339 35.2485 7.98598 33.6201 6.18892 33.0067V18.0615L3.09446 16.6677V33.0068C1.2974 33.6201 0 35.2485 0 37.1767C0 39.6267 2.08216 41.6196 4.64169 41.6196C7.20123 41.6196 9.28339 39.6267 9.28339 37.1767Z" fill="white"/>
<path d="M43.0828 29.1616L41.5403 20.3044L26.4062 27.121L11.169 20.3044L9.62646 29.1616C9.94942 29.3584 15.7572 35.6958 26.4062 35.6958C36.978 35.6958 42.7732 29.35 43.0828 29.1616Z" fill="white"/>
<path d="M0 12.0009L26.4061 23.8484L52.709 12.0009L26.4061 0.15332L0 12.0009ZM27.9533 13.4818H24.8589V10.5199H27.9533V13.4818Z" fill="white"/>
</svg>
